<svg xmlns="http://www.w3.org/2000/svg" fill="none" fill-rule="evenodd" stroke="#000" stroke-linejoin="bevel" stroke-miterlimit="10" stroke-width=".5" overflow="visible" viewBox="362.3 -2090.9 63.8 27.7" xmlns:v="https://vecta.io/nano"><g stroke="none" transform="scale(1 -1)"><clipPath id="A"><path d="M362.3 2091h63.8v-27.8h-63.8v27.8z"/></clipPath><g clip-path="url(#A)"><path fill="#fff" fill-rule="nonzero" d="M379.8 2067.5s-.6-.4-1.4-.4c-.7 0-1.4.3-1.9.9l-6.2 7.4c-.1.1-1.4 1.7 0 3.3l6.2 7.5s.8 1 2 1c.4 0 .9-.2 1.3-.5l5.8-3.2-6.2 6.7c-1.5 1.6-3.2.1-3.2.1l-13.1-11.7c-1.7-1.5 0-3 0-3l13.1-11.7c1.7-1.5 3.2.1 3.2.1l6.2 6.7-5.8-3.2zM366 2077l7.6 6-3.6-4.2c-.6-.7-.7-1.4-.7-2 0-1 .7-1.6.7-1.7l3.6-4.2-7.6 6zm53.4-4.7H418l-.2 3.3v3.1l-.7-2.9-.8-3.3h-1.3l-.8 3.3-.5 2.9-.2-3.1-.2-3.3h-1.5l.6 9.4h2l.7-3.4.7-3.3.6 3.3.8 3.4h1.9l.5-9.4zm-8.5 4.9c0-3.6-1.3-5-3-5-2.2 0-3 2.3-3 4.8 0 2.6 1 4.8 3.1 4.8 2.3 0 2.9-2.5 2.9-4.6zm-1.9-.1c0 1.6-.2 3.1-1 3.1-.9 0-1.2-1.5-1.2-3.2 0-1.8.3-3.2 1.1-3.2s1.1 1.4 1.1 3.3zm-4.8 2.9.3 1.5c-.2.1-.7.3-1.3.3-1.8 0-3.8-1.4-3.8-5 0-2.6 1.2-4.6 3.6-4.6l1.4.2-.2 1.6a3.2 3.2 0 0 0-.9-.2c-1 0-2 1-2 3.2 0 2.3 1 3.2 2 3.2l.9-.2zm-22.3-2.9c0 1.8-.5 3-1.3 3.8-.6.6-1.4.8-2.6.8l-1.8-.1v-9.2l1.5-.1c1.3 0 2.2.3 2.9.9.8.7 1.3 2 1.3 4zm-2 .1c0-2.6-.7-3.5-1.6-3.5h-.3v6.5h.4c1 0 1.6-1 1.6-3zm19-4.5-1.7 8.6s0 .4-.5.4h-1.4s-.4 0-.4-.4l-1.9-8.6s0-.4.3-.4h1s.4 0 .5.4l.2 1.4s.1.4.5.4h.9s.4 0 .5-.4l.2-1.4s0-.4.5-.4h1s.4 0 .3.4zm-2.6 3.2h-.6s-.4 0-.3.4l.2 1.6.4 2v-.2l.3-1.8.3-1.7s0-.3-.3-.3zm-8.1-3.2-1.7 8.6s0 .4-.4.4h-1.4s-.4 0-.5-.4l-1.9-8.6s0-.4.3-.4h1s.4 0 .5.4l.2 1.4s.1.4.5.4h1s.3 0 .4-.4l.2-1.4s.1-.4.5-.4h1s.4 0 .3.4zm-2.5 3.2h-.7s-.4 0-.3.4l.3 1.6.3 2v-.2l.3-1.8.3-1.7s0-.3-.2-.3zm5.8 3.7v-6.9c0-.4-.4-.4-.4-.4h-1c-.5 0-.5.4-.5.4v7c0 .3-.4.3-.4.3h-.8c-.4 0-.4.4-.4.4v1c0 .3.4.3.4.3h4.3c.4 0 .4-.4.4-.4v-.9c0-.4-.4-.4-.4-.4h-.8c-.4 0-.4-.4-.4-.4zm34.5-.6c0 .8-.2 1.5-.8 2-.6.6-1.5.8-2.5.8l-1.7-.2s-.3 0-.3-.4v-8.6s0-.3.4-.3h1.1s.4 0 .4.3V2076h.3c.8 0 1.7.3 2.3 1 .5.4.8 1.1.8 2.2zm-1.8-.2c0-.9-.4-1.5-1.3-1.5h-.3v2.9h.4c.9 0 1.2-.6 1.2-1.4z"/></g></g></svg>